# xmcd
#
# Track frame offsets:
#	150
#	18207
#	33826
#	48495
#	71444
#	95715
#	113241
#	135382
#	152010
#	175168
#
# Disc length: 2536 seconds
#
# Revision: 1
# Processed by: cddbd v1.5.2PL0 Copyright (c) Steve Scherf et al.
# Submitted via: audiograbber 1.83.01
#
DISCID=7809e60a
DTITLE=DARKHORSE - Let It Ride
DYEAR=2014
DGENRE=Country
TTITLE0=You Were The One I Waited For
TTITLE1=Better Days
TTITLE2=I Wouldn't Have Missed It For The World
TTITLE3=Goodbye
TTITLE4=In The Country
TTITLE5=Heaven Tonight
TTITLE6=Strong
TTITLE7=Nowhere Fast
TTITLE8=What She Meant To Me
TTITLE9=Let It Ride
EXTD=
EXTT0=
EXTT1=
EXTT2=
EXTT3=
EXTT4=
EXTT5=
EXTT6=
EXTT7=
EXTT8=
EXTT9=
PLAYORDER=
